<svg width="23" height="20" viewBox="0 0 23 20" fill="none" xmlns="http://www.w3.org/2000/svg">
<path id="Vector" d="M16.3737 3V1M6.12456 3V1M1.2847 6H21.2135M1 8.044C1 5.929 1 4.871 1.49651 4.063C1.94548 3.34231 2.64213 2.7645 3.48712 2.412C4.46192 2 5.73737 2 8.28826 2H14.21C16.7609 2 18.0363 2 19.0111 2.412C19.8686 2.774 20.5644 3.352 21.0017 4.062C21.4982 4.872 21.4982 5.93 21.4982 8.045V12.957C21.4982 15.072 21.4982 16.13 21.0017 16.938C20.5527 17.6587 19.8561 18.2365 19.0111 18.589C18.0363 19 16.7609 19 14.21 19H8.28826C5.73737 19 4.46192 19 3.48712 18.588C2.6423 18.2358 1.94566 17.6583 1.49651 16.938C1 16.128 1 15.07 1 12.955V8.044Z" stroke="#5C5C5C" stroke-width="1.5" stroke-linecap="round" stroke-linejoin="round"/>
</svg>
