<svg width="14" height="14" viewBox="0 0 14 14" fill="none" xmlns="http://www.w3.org/2000/svg">
<path id="Vector" d="M6.5 10.577V1.927L4.17 4.257L3.462 3.539L7 0L10.539 3.539L9.831 4.258L7.5 1.927V10.577H6.5ZM1.616 14C1.15533 14 0.771 13.846 0.463 13.538C0.155 13.23 0.000666667 12.8453 0 12.384V9.961H1V12.384C1 12.538 1.064 12.6793 1.192 12.808C1.32 12.9367 1.461 13.0007 1.615 13H12.385C12.5383 13 12.6793 12.936 12.808 12.808C12.9367 12.68 13.0007 12.5387 13 12.384V9.961H14V12.384C14 12.8447 13.846 13.229 13.538 13.537C13.23 13.845 12.8453 13.9993 12.384 14H1.616Z" fill="white"/>
</svg>
