<?xml version="1.0" encoding="UTF-8" standalone="no"?>
<!-- Created with Inkscape (http://www.inkscape.org/) -->

<svg
   version="1.1"
   id="svg2"
   width="1600"
   height="1600"
   viewBox="0 0 1600 1600"
   sodipodi:docname="SEDIPRO LOGO.ai"
   xmlns:inkscape="http://www.inkscape.org/namespaces/inkscape"
   xmlns:sodipodi="http://sodipodi.sourceforge.net/DTD/sodipodi-0.dtd"
   xmlns="http://www.w3.org/2000/svg"
   xmlns:svg="http://www.w3.org/2000/svg">
  <defs
     id="defs6">
    <clipPath
       clipPathUnits="userSpaceOnUse"
       id="clipPath16">
      <path
         d="M 0,1200 H 1200 V 0 H 0 Z"
         id="path14" />
    </clipPath>
  </defs>
  <sodipodi:namedview
     id="namedview4"
     pagecolor="#ffffff"
     bordercolor="#000000"
     borderopacity="0.25"
     inkscape:showpageshadow="2"
     inkscape:pageopacity="0.0"
     inkscape:pagecheckerboard="0"
     inkscape:deskcolor="#d1d1d1" />
  <g
     id="g8"
     inkscape:groupmode="layer"
     inkscape:label="SEDIPRO LOGO"
     transform="matrix(1.3333333,0,0,-1.3333333,0,1600)">
    <g
       id="g10">
      <g
         id="g12"
         clip-path="url(#clipPath16)">
        <g
           id="g18"
           transform="translate(493.6255,549.374)">
          <path
             d="m 0,0 c -8.798,6.517 -13.531,15.843 -14.201,27.988 h 34.922 v 0 c 0.333,-4.125 1.558,-7.133 3.674,-9.023 2.116,-1.898 4.848,-2.84 8.188,-2.84 3.008,0 5.484,0.75 7.436,2.254 1.947,1.504 2.923,3.593 2.923,6.265 0,3.451 -1.615,6.126 -4.844,8.02 -3.234,1.894 -8.468,4.01 -15.708,6.349 -7.685,2.563 -13.895,5.039 -18.629,7.438 -4.737,2.392 -8.855,5.901 -12.364,10.524 -3.509,4.622 -5.265,10.665 -5.265,18.13 0,7.573 1.894,14.06 5.683,19.466 3.784,5.4 9.023,9.494 15.704,12.28 6.685,2.782 14.258,4.178 22.726,4.178 13.7,0 24.644,-3.203 32.833,-9.608 8.185,-6.406 12.555,-15.402 13.114,-26.985 H 40.604 c 0,0 0,0 0,0 -0.114,3.562 -1.198,6.237 -3.26,8.02 -2.062,1.78 -4.707,2.675 -7.936,2.675 -2.45,0 -4.455,-0.727 -6.016,-2.174 -1.561,-1.45 -2.338,-3.509 -2.338,-6.18 0,-2.23 0.861,-4.151 2.59,-5.766 1.726,-1.615 3.869,-3.008 6.433,-4.175 2.56,-1.171 6.348,-2.648 11.361,-4.431 7.462,-2.564 13.619,-5.094 18.464,-7.6 4.844,-2.507 9.023,-6.016 12.532,-10.527 3.509,-4.512 5.262,-10.221 5.262,-17.128 0,-7.018 -1.753,-13.309 -5.262,-18.881 C 68.925,2.698 63.855,-1.699 57.227,-4.929 50.599,-8.162 42.774,-9.773 33.754,-9.773 20.051,-9.773 8.801,-6.517 0,0"
             style="fill:#2a2d66;fill-opacity:1;fill-rule:nonzero;stroke:none"
             id="path20" />
        </g>
        <g
           id="g22"
           transform="translate(619.2761,632.3313)">
          <path
             d="M 0,0 V -19.214 H 37.593 V -44.11 H 0 V -65.332 H 42.606 V -91.563 H -32.752 V 26.232 H 42.606 V 0 Z"
             style="fill:#2a2d66;fill-opacity:1;fill-rule:nonzero;stroke:none"
             id="path24" />
        </g>
        <g
           id="g26"
           transform="translate(744.7518,577.5266)">
          <path
             d="m 0,0 c 5.457,5.235 8.189,12.643 8.189,22.225 0,9.689 -2.732,17.178 -8.189,22.47 -5.457,5.292 -12.976,7.936 -22.558,7.936 H -33.919 V -7.852 h 11.361 C -12.976,-7.852 -5.457,-5.235 0,0 M 12.448,73.601 C 21.747,68.646 28.906,61.712 33.919,52.8 c 5.013,-8.912 7.519,-19.106 7.519,-30.575 0,-11.365 -2.536,-21.502 -7.603,-30.41 -5.07,-8.912 -12.253,-15.904 -21.555,-20.97 -9.299,-5.07 -20.079,-7.604 -32.331,-7.604 H -66.667 V 81.036 h 46.616 c 12.367,0 23.197,-2.479 32.499,-7.435"
             style="fill:#2a2d66;fill-opacity:1;fill-rule:nonzero;stroke:none"
             id="path28" />
        </g>
        <path
           d="M 833.64,540.768 H 800.892 V 658.563 H 833.64 Z"
           style="fill:#2a2d66;fill-opacity:1;fill-rule:nonzero;stroke:none"
           id="path30" />
        <g
           id="g32"
           transform="translate(912.0022,619.298)">
          <path
             d="m 0,0 c 0,8.576 -4.623,12.865 -13.868,12.865 h -13.033 v -25.562 h 13.033 C -4.623,-12.697 0,-8.465 0,0 m 28.489,-19.466 c -3.287,-5.847 -8.246,-10.524 -14.87,-14.033 -6.628,-3.509 -14.733,-5.265 -24.311,-5.265 H -26.901 V -78.53 H -59.649 V 39.265 h 48.957 c 9.467,0 17.515,-1.669 24.143,-5.013 C 20.078,30.911 25.064,26.289 28.405,20.384 31.746,14.48 33.418,7.687 33.418,0 c 0,-7.129 -1.645,-13.615 -4.929,-19.466"
             style="fill:#2a2d66;fill-opacity:1;fill-rule:nonzero;stroke:none"
             id="path34" />
        </g>
        <g
           id="g36"
           transform="translate(991.3665,606.601)">
          <path
             d="m 0,0 h 16.209 c 4.455,0 7.795,1.056 10.026,3.173 2.227,2.116 3.341,5.181 3.341,9.191 0,3.785 -1.144,6.766 -3.425,8.939 -2.284,2.173 -5.598,3.257 -9.942,3.257 L 0,24.56 Z M 26.901,-65.833 3.509,-22.39 H 0 V -65.833 H -32.748 V 51.962 h 51.629 c 9.467,0 17.487,-1.645 24.061,-4.929 6.571,-3.287 11.53,-7.798 14.871,-13.534 3.34,-5.737 5.012,-12.169 5.012,-19.298 0,-8.021 -2.2,-15.066 -6.601,-21.135 -4.4,-6.072 -10.833,-10.389 -19.297,-12.949 0,0 0,0 0,0 l 26.568,-45.95 z"
             style="fill:#2a2d66;fill-opacity:1;fill-rule:nonzero;stroke:none"
             id="path38" />
        </g>
        <g
           id="g40"
           transform="translate(1145.3346,578.196)">
          <path
             d="m 0,0 c 4.845,5.457 7.267,12.754 7.267,21.888 0,9.356 -2.422,16.734 -7.267,22.138 -4.845,5.403 -11.445,8.104 -19.799,8.104 -8.468,0 -15.096,-2.701 -19.883,-8.104 -4.791,-5.404 -7.186,-12.782 -7.186,-22.138 0,-9.248 2.395,-16.569 7.186,-21.972 4.787,-5.403 11.415,-8.105 19.883,-8.105 8.354,0 14.954,2.729 19.799,8.189 m -50.209,-30.827 c -9.249,5.181 -16.573,12.364 -21.973,21.555 -5.403,9.188 -8.104,19.574 -8.104,31.16 0,11.584 2.701,21.973 8.104,31.161 5.4,9.191 12.724,16.347 21.973,21.471 9.245,5.124 19.382,7.687 30.41,7.687 11.136,0 21.303,-2.563 30.491,-7.687 9.191,-5.124 16.458,-12.28 21.804,-21.471 5.349,-9.188 8.02,-19.577 8.02,-31.161 0,-11.586 -2.671,-21.972 -8.02,-31.16 -5.346,-9.191 -12.643,-16.374 -21.888,-21.555 -9.245,-5.181 -19.382,-7.768 -30.407,-7.768 -11.028,0 -21.165,2.587 -30.41,7.768"
             style="fill:#2a2d66;fill-opacity:1;fill-rule:nonzero;stroke:none"
             id="path42" />
        </g>
        <g
           id="g44"
           transform="translate(1082.4412,487.0594)">
          <path
             d="m 0,0 c 0,-4.479 -1.035,-7.736 -3.102,-9.767 -2.066,-2.033 -5.01,-3.049 -8.83,-3.049 -3.82,0 -6.774,1.016 -8.863,3.049 -2.09,2.031 -3.134,5.288 -3.134,9.767 v 24.265 h -8.764 V -0.31 c 0,-6.346 1.83,-11.199 5.493,-14.56 3.662,-3.36 8.731,-5.039 15.201,-5.039 6.426,0 11.468,1.679 15.133,5.039 3.663,3.361 5.493,8.214 5.493,14.56 V 24.265 H 0 Z"
             style="fill:#672577;fill-opacity:1;fill-rule:nonzero;stroke:none"
             id="path46" />
        </g>
        <g
           id="g48"
           transform="translate(1133.6619,481.4163)">
          <path
             d="m 0,0 -26.39,29.908 h -7.316 v -44.173 h 8.82 V 15.642 L 1.504,-14.265 H 8.82 V 29.908 H 0 Z"
             style="fill:#672577;fill-opacity:1;fill-rule:nonzero;stroke:none"
             id="path50" />
        </g>
        <g
           id="g52"
           transform="translate(1145.2393,511.3246)">
          <path
             d="M 0,0 V -6.942 H 15.862 V -44.174 H 24.75 V -6.942 H 40.612 V 0 Z"
             style="fill:#672577;fill-opacity:1;fill-rule:nonzero;stroke:none"
             id="path54" />
        </g>
        <g
           id="g56"
           transform="translate(356.4165,801.8452)">
          <path
             d="m 0,0 v -0.186 c -9.548,-71.394 -19.034,-142.789 -28.583,-214.152 -0.434,-3.348 -0.899,-6.727 -1.333,-10.075 -2.604,2.294 -5.177,4.588 -7.781,6.882 -35.31,31.186 -70.65,62.404 -105.96,93.622 1.984,1.24 4.03,2.542 6.107,3.875 0.031,0.031 0.062,0.031 0.093,0.062 1.395,0.868 2.79,1.798 4.185,2.728 1.395,0.899 2.822,1.86 4.247,2.852 5.053,3.41 10.293,7.099 15.687,11.098 0.93,0.651 1.86,1.364 2.79,2.077 3.348,2.511 6.758,5.146 10.23,7.936 1.736,1.364 3.472,2.759 5.208,4.216 1.736,1.426 3.503,2.883 5.27,4.402 2.635,2.201 5.27,4.527 7.936,6.913 1.364,1.178 2.728,2.419 4.093,3.69 4.898,4.433 9.827,9.145 14.756,14.074 1.89,1.891 3.751,3.782 5.58,5.673 1.798,1.891 3.596,3.751 5.363,5.642 1.612,1.736 3.193,3.472 4.774,5.208 0.155,0.124 0.279,0.279 0.372,0.434 1.705,1.86 3.348,3.72 4.96,5.58 3.255,3.72 6.386,7.409 9.362,11.067 1.396,1.705 2.759,3.411 4.092,5.085 2.976,3.751 5.798,7.44 8.494,11.067 1.334,1.736 2.605,3.503 3.844,5.239 2.14,2.945 4.186,5.859 6.139,8.711 C -6.789,8.463 0.589,5.673 0,0"
             style="fill:#3454a1;fill-opacity:1;fill-rule:nonzero;stroke:none"
             id="path58" />
        </g>
        <g
           id="g60"
           transform="translate(306.1113,470.3128)">
          <path
             d="m 0,0 c -1.723,0.524 -3.336,0.984 -4.892,1.417 -1.771,0.513 -3.349,0.95 -4.865,1.359 -1.199,0.327 -2.347,0.63 -3.476,0.927 l -1.474,0.389 c -2.564,0.638 -5.253,1.303 -7.817,1.905 l -4.592,1.039 c -1.108,0.251 -2.098,0.461 -3.073,0.669 l -0.827,0.175 c -0.717,0.158 -1.377,0.294 -2.019,0.424 l -14.692,2.805 -27.646,5.148 30.573,23.425 c 0.5,0.39 0.997,0.779 1.499,1.168 l 0.96,0.753 c 19.18,14.914 38.363,29.815 57.543,44.724 -31.927,28.858 -63.823,57.686 -95.72,86.513 -1.581,1.457 -3.162,2.883 -4.743,4.309 -1.177,1.054 -2.356,2.139 -3.533,3.193 -1.21,-1.023 -2.419,-2.046 -3.628,-3.069 C -158.298,121.875 -224.143,66.477 -290.02,11.079 l -0.031,-0.031 c -3.813,-3.255 -1.55,-9.548 3.504,-9.579 0.557,0 1.147,0 1.736,-0.031 1.333,0 2.696,0 4.092,-0.031 2.542,-0.062 5.146,-0.124 7.874,-0.186 7.44,-0.217 15.531,-0.558 24.149,-1.147 1.426,-0.093 2.883,-0.217 4.34,-0.31 2.295,-0.186 4.589,-0.341 6.945,-0.558 60.017,-5.146 102.798,-17.701 113.09,-20.801 27.125,-8.185 53.197,-16.245 83.64,-35.527 5.704,-3.627 10.943,-7.254 15.655,-10.695 0.96,-0.744 1.891,-1.427 2.821,-2.139 3.255,-2.449 6.293,-4.837 9.021,-7.1 0.031,-0.031 0.031,-0.031 0.062,-0.031 3.286,-2.666 8.246,-0.651 8.773,3.596 2.969,24.042 5.941,48.083 8.936,72.125 C 3.02,-0.897 1.48,-0.439 0,0"
             style="fill:#2a2d66;fill-opacity:1;fill-rule:nonzero;stroke:none"
             id="path62" />
        </g>
        <g
           id="g64"
           transform="translate(448.9843,629.7297)">
          <path
             d="m 0,0 c -0.031,-0.124 -0.062,-0.279 -0.124,-0.434 -1.891,-5.859 -3.782,-11.718 -5.673,-17.608 -0.093,-0.248 -0.155,-0.527 -0.248,-0.775 -11.408,-9.301 -22.848,-18.57 -34.256,-27.87 -11.222,-9.114 -22.413,-18.259 -33.636,-27.373 -4.215,-3.442 -8.463,-6.883 -12.679,-10.324 -10.416,-8.463 -20.832,-16.926 -31.248,-25.42 11.129,6.975 22.568,13.95 34.349,20.925 h 0.031 c 4.153,2.449 8.339,4.93 12.586,7.347 3.658,2.139 7.378,4.279 11.098,6.387 6.82,3.875 13.578,7.657 20.305,11.346 3.348,1.86 6.696,3.689 10.044,5.487 3.318,1.798 6.635,3.565 9.952,5.332 2.046,1.085 4.371,-0.651 3.968,-2.945 v -0.031 c -1.271,-6.851 -2.481,-14.074 -3.565,-21.607 -0.403,-2.791 -0.775,-5.643 -1.147,-8.526 -0.187,-1.519 -0.372,-3.038 -0.558,-4.588 -0.186,-1.55 -0.373,-3.1 -0.527,-4.681 -0.186,-1.55 -0.341,-3.131 -0.497,-4.743 -0.155,-1.581 -0.309,-3.193 -0.464,-4.805 -0.155,-1.612 -0.28,-3.255 -0.404,-4.867 -0.557,-6.572 -0.992,-13.33 -1.27,-20.244 -0.342,-7.874 -0.497,-15.531 -0.497,-22.971 0,-2.418 0.032,-4.836 0.063,-7.192 0.031,-1.736 0.061,-3.441 0.092,-5.115 0.031,-2.046 0.093,-4.092 0.186,-6.107 0.063,-2.015 0.125,-4.03 0.249,-6.014 0.062,-1.984 0.185,-3.938 0.309,-5.86 0.155,-2.914 0.342,-5.766 0.559,-8.587 0.186,-2.79 0.433,-5.58 0.682,-8.277 v -0.248 c 0,-2.325 -2.76,-3.596 -4.557,-2.046 -14.416,12.648 -27.684,21.577 -37.821,27.653 -28.242,16.895 -53.384,24.583 -73.658,30.597 -1.736,0.527 -3.472,1.023 -5.146,1.488 -1.705,0.496 -3.379,0.961 -4.991,1.395 -1.705,0.465 -3.379,0.899 -5.022,1.333 -2.852,0.713 -5.611,1.395 -8.246,2.015 -1.643,0.372 -3.255,0.744 -4.805,1.085 -1.364,0.31 -2.698,0.589 -3.999,0.868 -1.271,0.279 -2.543,0.528 -3.751,0.775 -0.031,0 -0.031,0 -0.062,0.031 -2.077,0.403 -4.031,0.775 -5.86,1.116 1.582,1.209 3.132,2.45 4.713,3.658 0.031,0.031 0.031,0.031 0.061,0.063 57.011,44.33 114.021,88.63 171.031,132.93 C -2.418,4.154 0.372,2.387 0,0"
             style="fill:#672577;fill-opacity:1;fill-rule:nonzero;stroke:none"
             id="path66" />
        </g>
      </g>
    </g>
  </g>
</svg>
