<?xml version="1.0" encoding="utf-8"?>
<svg xmlns="http://www.w3.org/2000/svg" viewBox="10.169 516.069 1574.588 572.956">
  <defs>
    <clipPath id="a" clipPathUnits="userSpaceOnUse">
      <path d="M0 1200h1200V0H0Z"/>
    </clipPath>
  </defs>
  <g clip-path="url(#a)" transform="matrix(1.33333 0 0 -1.33333 0 1600)">
    <g>
      <path fill="#2a2d66" d="M493.625 549.374c-8.798 6.517-13.53 15.843-14.2 27.988h34.921c.333-4.125 1.558-7.133 3.674-9.023 2.116-1.898 4.848-2.84 8.188-2.84 3.008 0 5.484.75 7.436 2.254 1.947 1.504 2.923 3.593 2.923 6.265 0 3.451-1.615 6.126-4.844 8.02-3.234 1.894-8.468 4.01-15.708 6.349-7.685 2.563-13.895 5.039-18.629 7.438-4.737 2.392-8.855 5.901-12.364 10.524-3.509 4.622-5.265 10.665-5.265 18.13 0 7.573 1.894 14.06 5.683 19.466 3.784 5.4 9.023 9.494 15.704 12.28 6.685 2.782 14.258 4.178 22.726 4.178 13.7 0 24.644-3.203 32.833-9.608 8.185-6.406 12.555-15.402 13.114-26.985H534.23c-.114 3.562-1.198 6.237-3.26 8.02-2.062 1.78-4.707 2.675-7.936 2.675-2.45 0-4.455-.727-6.016-2.174-1.56-1.45-2.338-3.509-2.338-6.18 0-2.23.862-4.151 2.59-5.766 1.727-1.615 3.87-3.008 6.434-4.175 2.56-1.171 6.348-2.648 11.36-4.431 7.463-2.564 13.62-5.094 18.465-7.6 4.844-2.507 9.023-6.016 12.532-10.527 3.509-4.512 5.262-10.221 5.262-17.128 0-7.018-1.753-13.309-5.262-18.881-3.51-5.571-8.58-9.968-15.207-13.198-6.628-3.233-14.453-4.844-23.473-4.844-13.703 0-24.953 3.256-33.754 9.773m125.65 82.957v-19.214h37.593v-24.896h-37.593V567h42.606v-26.23h-75.358v117.794h75.358v-26.232Zm125.476-54.804c5.457 5.235 8.189 12.643 8.189 22.225 0 9.689-2.732 17.178-8.19 22.47-5.456 5.292-12.975 7.936-22.557 7.936h-11.361v-60.483h11.36c9.583 0 17.102 2.617 22.559 7.852m12.448 73.6c9.299-4.954 16.458-11.888 21.47-20.8 5.014-8.912 7.52-19.106 7.52-30.575 0-11.365-2.536-21.502-7.603-30.41-5.07-8.912-12.253-15.904-21.555-20.97-9.3-5.07-20.08-7.604-32.331-7.604h-46.616v117.795H724.7c12.367 0 23.197-2.48 32.499-7.435m76.44-110.36h-32.748v117.795h32.748Zm78.362 78.53c0 8.576-4.623 12.865-13.868 12.865h-13.033v-25.562h13.033c9.245 0 13.868 4.232 13.868 12.697m28.49-19.466c-3.288-5.847-8.247-10.524-14.87-14.033-6.629-3.509-14.734-5.265-24.312-5.265h-16.209v-39.766h-32.748v117.795h48.957c9.467 0 17.515-1.669 24.143-5.013 6.627-3.341 11.613-7.963 14.954-13.868 3.341-5.904 5.013-12.697 5.013-20.384 0-7.129-1.645-13.615-4.929-19.466m50.875 6.769h16.21c4.454 0 7.794 1.056 10.025 3.173 2.227 2.116 3.341 5.181 3.341 9.191 0 3.785-1.144 6.766-3.425 8.939-2.284 2.173-5.598 3.257-9.942 3.257h-16.209Zm26.901-65.833-23.392 43.443h-3.509v-43.443h-32.748v117.795h51.63c9.466 0 17.486-1.645 24.06-4.929 6.571-3.287 11.53-7.798 14.871-13.534 3.34-5.737 5.012-12.169 5.012-19.298 0-8.021-2.2-15.066-6.6-21.135-4.4-6.072-10.834-10.389-19.298-12.949l26.568-45.95zm127.068 37.428c4.845 5.457 7.267 12.754 7.267 21.888 0 9.356-2.422 16.734-7.267 22.138-4.845 5.403-11.445 8.104-19.8 8.104-8.467 0-15.095-2.701-19.882-8.104-4.791-5.404-7.186-12.782-7.186-22.138 0-9.248 2.395-16.569 7.186-21.972 4.787-5.403 11.415-8.105 19.883-8.105 8.354 0 14.954 2.729 19.799 8.189m-50.21-30.827c-9.248 5.181-16.572 12.364-21.972 21.555-5.403 9.188-8.104 19.574-8.104 31.16 0 11.584 2.7 21.973 8.104 31.161 5.4 9.191 12.724 16.347 21.973 21.471 9.245 5.124 19.382 7.687 30.41 7.687 11.136 0 21.303-2.563 30.49-7.687 9.192-5.124 16.459-12.28 21.805-21.471 5.349-9.188 8.02-19.577 8.02-31.161 0-11.586-2.671-21.972-8.02-31.16-5.346-9.191-12.643-16.374-21.888-21.555-9.245-5.181-19.382-7.768-30.407-7.768-11.028 0-21.165 2.587-30.41 7.768"/>
      <path fill="#672577" d="M1082.441 487.06c0-4.48-1.035-7.737-3.102-9.768-2.066-2.033-5.01-3.049-8.83-3.049-3.82 0-6.774 1.016-8.863 3.05-2.09 2.03-3.134 5.287-3.134 9.766v24.265h-8.764V486.75c0-6.346 1.83-11.199 5.493-14.56 3.662-3.36 8.731-5.039 15.201-5.039 6.426 0 11.468 1.68 15.133 5.04 3.663 3.36 5.493 8.213 5.493 14.56v24.574h-8.627Zm51.22-5.644-26.39 29.908h-7.315v-44.173h8.82v29.907l26.39-29.907h7.316v44.173h-8.82Zm11.578 29.909v-6.942h15.862V467.15h8.888v37.232h15.862v6.942Z"/>
      <path fill="#3454a1" d="M356.416 801.845v-.186c-9.548-71.394-19.034-142.789-28.583-214.152-.434-3.348-.899-6.727-1.333-10.075-2.604 2.294-5.177 4.588-7.78 6.882a277901.41 277901.41 0 0 0-105.96 93.622c1.983 1.24 4.03 2.542 6.106 3.875.031.031.062.031.093.062 1.395.868 2.79 1.798 4.185 2.728 1.395.9 2.822 1.86 4.247 2.852a433.354 433.354 0 0 1 15.687 11.098c.93.651 1.86 1.364 2.79 2.077a386.791 386.791 0 0 1 10.23 7.936 207.05 207.05 0 0 1 5.208 4.216 305.151 305.151 0 0 1 5.27 4.402c2.635 2.201 5.27 4.527 7.936 6.913a147.99 147.99 0 0 1 4.093 3.69 410.642 410.642 0 0 1 14.756 14.074 485.334 485.334 0 0 1 5.58 5.673c1.798 1.891 3.596 3.751 5.363 5.642a728.089 728.089 0 0 1 4.774 5.208c.155.124.28.28.372.434 1.705 1.86 3.348 3.72 4.96 5.58a404.925 404.925 0 0 1 9.362 11.067 442.403 442.403 0 0 1 12.586 16.152c1.334 1.736 2.605 3.503 3.844 5.24a381.257 381.257 0 0 1 6.14 8.71c3.285 4.743 10.663 1.953 10.074-3.72"/>
      <path fill="#2a2d66" d="M306.111 470.313c-1.723.524-3.336.984-4.892 1.417-1.77.513-3.349.95-4.865 1.359a393.9 393.9 0 0 1-3.476.927l-1.474.389a616.942 616.942 0 0 1-7.817 1.905l-4.592 1.039c-1.108.25-2.098.46-3.073.669l-.827.175c-.717.158-1.377.294-2.019.424l-14.692 2.805-27.646 5.148 30.573 23.425c.5.39.997.779 1.5 1.168l.96.753c19.18 14.914 38.362 29.815 57.542 44.724-31.927 28.858-63.823 57.686-95.72 86.513-1.58 1.457-3.162 2.883-4.743 4.309-1.177 1.054-2.356 2.139-3.533 3.193l-3.628-3.07C147.813 592.189 81.97 536.79 16.091 481.393l-.03-.031c-3.814-3.255-1.55-9.548 3.503-9.58.557 0 1.147 0 1.736-.03 1.333 0 2.696 0 4.092-.031 2.542-.062 5.146-.124 7.874-.186 7.44-.217 15.531-.558 24.15-1.147 1.425-.093 2.882-.217 4.34-.31 2.294-.186 4.588-.341 6.944-.558 60.017-5.146 102.798-17.701 113.09-20.801 27.125-8.185 53.197-16.245 83.64-35.527a294.805 294.805 0 0 0 15.655-10.695c.96-.744 1.891-1.427 2.821-2.14a244.1 244.1 0 0 0 9.021-7.1c.031-.03.031-.03.062-.03 3.286-2.666 8.246-.651 8.773 3.596 2.97 24.042 5.941 48.083 8.936 72.125-1.567.469-3.107.927-4.587 1.366"/>
      <path fill="#672577" d="M448.984 629.73c-.03-.124-.062-.28-.124-.434-1.89-5.86-3.782-11.718-5.673-17.608-.093-.248-.155-.527-.248-.775-11.408-9.301-22.848-18.57-34.256-27.87-11.222-9.114-22.413-18.26-33.636-27.373-4.215-3.442-8.463-6.883-12.679-10.324-10.416-8.463-20.832-16.926-31.248-25.42a1589.597 1589.597 0 0 0 34.35 20.925h.03c4.153 2.449 8.34 4.93 12.586 7.347a945.66 945.66 0 0 0 11.098 6.387c6.82 3.875 13.578 7.657 20.305 11.346a802.485 802.485 0 0 0 10.044 5.487c3.318 1.798 6.635 3.565 9.952 5.332 2.046 1.085 4.371-.651 3.968-2.945v-.031a540.711 540.711 0 0 1-3.565-21.607 573.823 573.823 0 0 1-1.147-8.526c-.187-1.52-.372-3.038-.558-4.588-.186-1.55-.373-3.1-.527-4.681-.186-1.55-.34-3.131-.497-4.743-.155-1.581-.309-3.193-.464-4.805-.155-1.612-.28-3.255-.404-4.867a457.342 457.342 0 0 1-1.27-20.244 529.138 529.138 0 0 1-.497-22.971c0-2.418.032-4.836.063-7.192l.092-5.115c.031-2.046.093-4.092.186-6.107.063-2.015.125-4.03.25-6.014.061-1.984.184-3.938.308-5.86.155-2.914.342-5.766.56-8.587.185-2.79.432-5.58.681-8.277v-.248c0-2.325-2.76-3.596-4.557-2.046-14.416 12.648-27.684 21.577-37.82 27.653-28.243 16.895-53.385 24.583-73.659 30.597a225.906 225.906 0 0 1-5.146 1.488 258.1 258.1 0 0 1-4.99 1.395c-1.706.465-3.38.899-5.023 1.333a618.293 618.293 0 0 1-8.246 2.015c-1.643.372-3.255.744-4.805 1.085-1.364.31-2.698.589-3.999.868-1.27.279-2.543.528-3.75.775-.032 0-.032 0-.063.03a816.69 816.69 0 0 1-5.86 1.117c1.582 1.209 3.132 2.45 4.713 3.658.031.03.031.03.061.063 57.011 44.33 114.021 88.63 171.031 132.93 2.015 1.58 4.805-.186 4.433-2.573"/>
    </g>
  </g>
</svg>